<?xml version="1.0" standalone="no"?><!DOCTYPE svg PUBLIC "-//W3C//DTD SVG 1.1//EN" "http://www.w3.org/Graphics/SVG/1.1/DTD/svg11.dtd"><svg class="icon" width="32px" height="24.33px" viewBox="0 0 1347 1024" version="1.1" xmlns="http://www.w3.org/2000/svg"><path fill="#999999" d="M168.421053 0h1010.526315C1271.969684 0 1347.368421 65.482105 1347.368421 146.297263V877.675789C1347.368421 958.517895 1271.969684 1024 1178.947368 1024H168.421053C75.398737 1024 0 958.517895 0 877.702737V146.324211C0 65.482105 75.398737 0 168.421053 0z m252.631579 585.135158c60.173474 0 115.765895-27.863579 145.866105-73.135158 30.073263-45.271579 30.073263-101.025684 0-146.297263-30.100211-45.271579-85.692632-73.135158-145.866105-73.135158-93.022316 0-168.421053 65.482105-168.421053 146.297263 0 80.788211 75.398737 146.270316 168.421053 146.270316z m-238.322527 146.297263H659.402105c-35.651368-87.767579-131.179789-146.458947-238.322526-146.458947-107.142737 0-202.644211 58.691368-238.322526 146.458947zM842.105263 365.675789v73.162106h336.842105V365.675789h-336.842105z m0 219.432422v73.162105h336.842105v-73.162105h-336.842105z"  /></svg>