<?xml version="1.0" standalone="no"?><!DOCTYPE svg PUBLIC "-//W3C//DTD SVG 1.1//EN" "http://www.w3.org/Graphics/SVG/1.1/DTD/svg11.dtd"><svg class="icon" width="32px" height="32.00px" viewBox="0 0 1024 1024" version="1.1" xmlns="http://www.w3.org/2000/svg"><path fill="#999999" d="M321.219048 1023.390476c16.262095-181.369905 168.277333-320.365714 350.378666-320.365714 182.125714 0 334.116571 138.99581 350.403048 320.365714H321.219048zM127.926857 63.951238V159.939048c0 17.65181 14.311619 31.963429 31.98781 31.963428h511.683047c17.67619 0 31.98781-14.311619 31.98781-31.963428V63.951238h63.975619a63.951238 63.951238 0 0 1 63.951238 63.975619v259.047619a223.865905 223.865905 0 0 0-337.846857 292.498286 416.597333 416.597333 0 0 0-226.694095 279.966476H63.951238A63.951238 63.951238 0 0 1 0 895.488V127.926857a63.951238 63.951238 0 0 1 63.951238-63.975619h63.975619z m31.98781 255.853714a31.98781 31.98781 0 1 0 0 63.975619h191.878095a31.98781 31.98781 0 0 0 0-63.975619H159.939048z m0 191.878096a31.98781 31.98781 0 1 0 0 63.975619h127.926857a31.98781 31.98781 0 1 0 0-63.951238H159.914667zM223.865905 0h383.75619c17.67619 0 32.01219 14.311619 32.012191 31.98781v63.951238c0 17.67619-14.336 31.98781-31.98781 31.987809H223.890286A31.98781 31.98781 0 0 1 191.878095 95.939048V31.98781C191.878095 14.311619 206.214095 0 223.865905 0z m447.731809 703.585524a159.914667 159.914667 0 1 1 0-319.804953 159.914667 159.914667 0 0 1 0 319.804953z"  /></svg>