<?xml version="1.0" standalone="no"?><!DOCTYPE svg PUBLIC "-//W3C//DTD SVG 1.1//EN" "http://www.w3.org/Graphics/SVG/1.1/DTD/svg11.dtd"><svg class="icon" width="32px" height="32.00px" viewBox="0 0 1024 1024" version="1.1" xmlns="http://www.w3.org/2000/svg"><path fill="#999999" d="M87.578947 52.439579H390.736842c33.468632 0 60.631579 27.109053 60.631579 60.631579v303.157895c0 33.468632-27.162947 60.631579-60.631579 60.631579H87.578947A60.631579 60.631579 0 0 1 26.947368 416.229053V113.071158C26.947368 79.548632 54.110316 52.439579 87.578947 52.439579z m0 545.68421H390.736842c33.468632 0 60.631579 27.109053 60.631579 60.631579v303.157895c0 33.468632-27.162947 60.631579-60.631579 60.631579H87.578947A60.631579 60.631579 0 0 1 26.947368 961.913263v-303.157895c0-33.522526 27.162947-60.631579 60.631579-60.631579zM633.263158 52.439579h303.157895c33.468632 0 60.631579 27.109053 60.631579 60.631579v303.157895c0 33.468632-27.162947 60.631579-60.631579 60.631579H633.263158a60.631579 60.631579 0 0 1-60.631579-60.631579V113.071158c0-33.522526 27.162947-60.631579 60.631579-60.631579z m0 545.68421h303.157895c33.468632 0 60.631579 27.109053 60.631579 60.631579v303.157895c0 33.468632-27.162947 60.631579-60.631579 60.631579H633.263158a60.631579 60.631579 0 0 1-60.631579-60.631579v-303.157895c0-33.522526 27.162947-60.631579 60.631579-60.631579z"  /></svg>