<?xml version="1.0" standalone="no"?><!DOCTYPE svg PUBLIC "-//W3C//DTD SVG 1.1//EN" "http://www.w3.org/Graphics/SVG/1.1/DTD/svg11.dtd"><svg class="icon" width="32px" height="32.00px" viewBox="0 0 1024 1024" version="1.1" xmlns="http://www.w3.org/2000/svg"><path fill="#999999" d="M148.210526 546.384842v-121.263158h151.605895c16.707368 0 30.288842-13.581474 30.288842-30.342737V212.884211a30.342737 30.342737 0 0 0-30.342737-30.288843H148.210526v-121.263157c0-33.522526 27.162947-60.631579 60.631579-60.631579h727.578948C969.889684 0.700632 997.052632 27.809684 997.052632 61.332211v848.842105c0 33.468632-27.162947 60.631579-60.631579 60.631579h-727.578948a60.631579 60.631579 0 0 1-60.631579-60.631579v-121.263158h151.605895c16.707368 0 30.288842-13.581474 30.288842-30.342737V576.673684a30.342737 30.342737 0 0 0-30.342737-30.288842H148.210526z m666.947369-424.421053c-33.468632 0-60.631579 27.109053-60.631579 60.631579v606.31579a60.631579 60.631579 0 1 0 121.263158 0V182.595368c0-33.522526-27.162947-60.631579-60.631579-60.631579zM57.236211 243.226947h181.894736c16.761263 0 30.342737 13.581474 30.342737 30.288842V334.147368c0 16.707368-13.581474 30.342737-30.342737 30.342737H57.290105A30.342737 30.342737 0 0 1 26.947368 334.147368V273.515789c0-16.707368 13.581474-30.288842 30.342737-30.288842z m0 363.789474h181.894736c16.761263 0 30.342737 13.581474 30.342737 30.288842v60.631579c0 16.707368-13.581474 30.342737-30.342737 30.342737H57.290105A30.342737 30.342737 0 0 1 26.947368 697.936842v-60.631579c0-16.707368 13.581474-30.288842 30.342737-30.288842z"  /></svg>