<?xml version="1.0" standalone="no"?><!DOCTYPE svg PUBLIC "-//W3C//DTD SVG 1.1//EN" "http://www.w3.org/Graphics/SVG/1.1/DTD/svg11.dtd"><svg class="icon" width="32px" height="32.00px" viewBox="0 0 1024 1024" version="1.1" xmlns="http://www.w3.org/2000/svg"><path fill="#999999" d="M243.2 454.4c0-12.8-6.4-19.2-6.4-32 0-153.6 121.6-281.6 268.8-281.6 147.2 0 268.8 128 268.8 281.6 0 12.8 0 19.2-6.4 32h70.4v-32c0-192-153.6-352-339.2-352-179.2 0-326.4 153.6-326.4 352v32h70.4zM780.8 454.4H172.8v435.2c0 38.4 32 70.4 64 70.4h544c38.4 0 64-32 64-70.4V454.4h-64z m0 435.2H243.2V518.4h537.6v371.2z"  /></svg>