<?xml version="1.0" standalone="no"?><!DOCTYPE svg PUBLIC "-//W3C//DTD SVG 1.1//EN" "http://www.w3.org/Graphics/SVG/1.1/DTD/svg11.dtd"><svg class="icon" width="32px" height="32.00px" viewBox="0 0 1024 1024" version="1.1" xmlns="http://www.w3.org/2000/svg"><path fill="#999999" d="M284.135619 89.916952h455.728762c73.337905 0 99.961905 7.655619 126.780952 21.942858 26.86781 14.384762 47.88419 35.449905 62.220191 62.268952 14.384762 26.819048 21.991619 53.443048 21.991619 126.73219v291.254858c0 73.289143-7.655619 99.913143-21.942857 126.73219a149.552762 149.552762 0 0 1-62.268953 62.22019c-26.819048 14.384762-53.443048 21.942857-126.73219 21.942858H284.086857c-73.289143 0-99.913143-7.655619-126.780952-21.942858A149.552762 149.552762 0 0 1 95.085714 718.848C80.749714 691.931429 73.142857 665.404952 73.142857 592.11581V300.860952c0-73.289143 7.704381-99.961905 21.942857-126.780952 14.043429-26.477714 35.742476-48.176762 62.317715-62.22019 26.770286-14.336 53.394286-21.942857 126.683428-21.942858z m63.292952 768h329.142858a54.857143 54.857143 0 0 1 0 109.714286h-329.142858a54.857143 54.857143 0 0 1 0-109.714286z m463.823239-384h-127.171048L505.953524 316.952381a30.72 30.72 0 0 0-23.015619-7.558095c-8.289524 0.487619-16.091429 4.388571-21.504 10.630095L332.946286 473.965714H212.796952c-16.579048 0-29.93981 12.288-29.939809 27.404191 0 15.11619 13.409524 27.452952 29.891047 27.452952h135.070477c9.313524 0 18.041905-3.949714 23.795809-10.727619l117.028572-140.239238 162.816 143.262476a31.402667 31.402667 0 0 0 20.675047 7.704381h139.117715c16.432762 0 29.891048-12.288 29.891047-27.452952 0-15.11619-13.360762-27.40419-29.891047-27.404191z"  /></svg>