<?xml version="1.0" standalone="no"?><!DOCTYPE svg PUBLIC "-//W3C//DTD SVG 1.1//EN" "http://www.w3.org/Graphics/SVG/1.1/DTD/svg11.dtd"><svg class="icon" width="32px" height="32.00px" viewBox="0 0 1024 1024" version="1.1" xmlns="http://www.w3.org/2000/svg"><path fill="#999999" d="M1024 320H0V292.08381C0 235.032381 5.948952 214.332952 17.066667 193.536a115.809524 115.809524 0 0 1 48.39619-48.444952c20.870095-11.142095 41.618286-17.091048 98.572191-17.091048h27.964952V0h128v128h384V0h128v128h27.91619c57.07581 0 77.750857 5.948952 98.54781 17.066667a115.809524 115.809524 0 0 1 48.444952 48.39619c11.142095 20.870095 17.091048 41.618286 17.091048 98.572191v27.964952z m0 64v475.91619c0 57.07581-5.948952 77.750857-17.066667 98.54781a115.809524 115.809524 0 0 1-48.39619 48.444952c-20.870095 11.142095-41.618286 17.091048-98.572191 17.091048H164.035048c-57.10019 0-77.775238-5.948952-98.572191-17.066667a116.297143 116.297143 0 0 1-48.444952-48.39619C5.948952 937.593905 0 916.918857 0 859.964952V384h1024zM704 512L512 704l-128-128-64 64L512 832l256-256L704 512z"  /></svg>