<?xml version="1.0" standalone="no"?><!DOCTYPE svg PUBLIC "-//W3C//DTD SVG 1.1//EN" "http://www.w3.org/Graphics/SVG/1.1/DTD/svg11.dtd"><svg class="icon" width="32px" height="28.44px" viewBox="0 0 1152 1024" version="1.1" xmlns="http://www.w3.org/2000/svg"><path fill="#999999" d="M143.936 0H1007.36a143.936 143.936 0 0 1 143.936 143.936v719.552a143.936 143.936 0 0 1-143.936 143.872H144A143.936 143.936 0 0 1 0 863.488V143.936A143.936 143.936 0 0 1 143.936 0z m215.872 575.68a143.936 143.936 0 1 0 0-287.872 143.936 143.936 0 0 0 0 287.872zM156.16 719.552h407.232a215.936 215.936 0 0 0-407.232 0z m563.392-359.744v71.936h287.808V359.808h-287.808z m0 215.872v71.936h287.808V575.68h-287.808z"  /></svg>