<?xml version="1.0" standalone="no"?><!DOCTYPE svg PUBLIC "-//W3C//DTD SVG 1.1//EN" "http://www.w3.org/Graphics/SVG/1.1/DTD/svg11.dtd"><svg class="icon" width="32px" height="32.00px" viewBox="0 0 1024 1024" version="1.1" xmlns="http://www.w3.org/2000/svg"><path fill="#999999" d="M500.0192 620.6464a91.7504 91.7504 0 1 0 0 183.5008 91.7504 91.7504 0 0 0 0-183.5008zM500.0192 0L0.512 425.1136v38.656h142.6944v463.7696a71.5776 71.5776 0 0 0 71.3728 71.3728h178.3296v-1.1264h214.0672v1.1264h178.3808a71.5776 71.5776 0 0 0 71.3728-71.3728V463.7696h142.6944v-38.656L500.0192 0z m214.016 730.4192c0 7.2704-5.12 13.568-12.288 15.0016l-46.592 9.3184a15.36 15.36 0 0 0-11.4176 9.8816 153.088 153.088 0 0 1-5.1712 12.4928 15.36 15.36 0 0 0 1.1264 15.0016l26.3168 39.5776a15.3088 15.3088 0 0 1-1.8944 19.2512l-25.4976 25.5488c-5.12 5.12-13.2608 5.9392-19.3024 1.8944l-39.5776-26.368a15.36 15.36 0 0 0-15.0528-1.1264c-4.096 1.9456-8.192 3.6352-12.4928 5.1712a15.36 15.36 0 0 0-9.8304 11.4176l-9.3184 46.6944a15.3088 15.3088 0 0 1-15.0016 12.288h-36.096a15.3088 15.3088 0 0 1-15.0016-12.288l-9.3184-46.592a15.36 15.36 0 0 0-9.8304-11.4176 153.088 153.088 0 0 1-12.4928-5.2224 15.36 15.36 0 0 0-15.0528 1.1264l-39.5776 26.368a15.3088 15.3088 0 0 1-19.2512-1.8944l-25.5488-25.4976a15.3088 15.3088 0 0 1-1.8944-19.3024l26.368-39.5776a15.36 15.36 0 0 0 1.1264-15.0016c-1.8944-4.096-3.584-8.2432-5.1712-12.4928a15.36 15.36 0 0 0-11.4176-9.9328l-46.592-9.3184a15.3088 15.3088 0 0 1-12.288-15.0016v-36.096c0-7.2704 5.12-13.568 12.288-15.0016l46.592-9.3184a15.36 15.36 0 0 0 11.4176-9.8304 153.088 153.088 0 0 1 5.12-12.4928 15.36 15.36 0 0 0-1.0752-15.0528l-26.368-39.5264a15.3088 15.3088 0 0 1 1.8944-19.3024l25.5488-25.4976c5.12-5.12 13.2096-5.9392 19.2512-1.8944l39.6288 26.3168a15.36 15.36 0 0 0 15.0528 1.1264c4.0448-1.8944 8.192-3.584 12.4416-5.1712a15.36 15.36 0 0 0 9.8816-11.4176l9.3184-46.6432c1.4336-7.168 7.68-12.288 14.9504-12.288h36.096c7.2704 0 13.568 5.12 15.0016 12.288l9.3184 46.592a15.36 15.36 0 0 0 9.8816 11.4176c4.2496 1.536 8.3968 3.2768 12.4928 5.1712a15.36 15.36 0 0 0 15.0016-1.1264l39.5776-26.368a15.3088 15.3088 0 0 1 19.3024 1.8944l25.4976 25.5488c5.12 5.12 5.9392 13.2096 1.8944 19.2512l-26.368 39.5776a15.36 15.36 0 0 0-1.1264 15.0528c1.9456 4.096 3.6352 8.192 5.1712 12.4928a15.36 15.36 0 0 0 11.4688 9.8816l46.592 9.3184c7.168 1.4336 12.288 7.7312 12.288 15.0016v36.096z"  /></svg>