<?xml version="1.0" standalone="no"?><!DOCTYPE svg PUBLIC "-//W3C//DTD SVG 1.1//EN" "http://www.w3.org/Graphics/SVG/1.1/DTD/svg11.dtd"><svg class="icon" width="32px" height="32.00px" viewBox="0 0 1024 1024" version="1.1" xmlns="http://www.w3.org/2000/svg"><path fill="#999999" d="M321.707236 1024a352.199111 352.199111 0 0 1 350.947555-320.568889A352.199111 352.199111 0 0 1 1023.602347 1024H321.707236zM128.114347 64v96.028444c0 17.635556 14.336 31.971556 32.028444 31.971556h512.512a32.028444 32.028444 0 0 0 32.028445-32.028444V64h64.056888c35.384889 0 64.056889 28.672 64.056889 64v259.185778a224.369778 224.369778 0 0 0-306.858666-12.515556 223.857778 223.857778 0 0 0-31.516445 305.208889 416.938667 416.938667 0 0 0-226.986666 280.120889H64.000569A64.056889 64.056889 0 0 1 0.000569 896V128c0-35.328 28.672-64 64.056889-64h64.056889z m32.028444 256a32.028444 32.028444 0 1 0 0 64h192.227556a32.028444 32.028444 0 1 0 0-64H160.142791z m0 192a32.028444 32.028444 0 1 0 0 64h128.113778a32.028444 32.028444 0 1 0 0-64H160.142791z m64.056889-512h384.398222c17.635556 0 32.028444 14.336 32.028445 32.028444v64c0 17.635556-14.336 31.971556-32.028445 31.971556H224.142791a32.028444 32.028444 0 0 1-32.028444-32.028444V32.028444c0-17.635556 14.336-31.971556 32.028444-31.971555z m448.455111 704a160.085333 160.085333 0 0 1-160.142222-160.028444 160.085333 160.085333 0 0 1 160.142222-159.971556 160.085333 160.085333 0 0 1 160.142222 160.028444 160.085333 160.085333 0 0 1-160.142222 159.971556z"  /></svg>