<?xml version="1.0" standalone="no"?><!DOCTYPE svg PUBLIC "-//W3C//DTD SVG 1.1//EN" "http://www.w3.org/Graphics/SVG/1.1/DTD/svg11.dtd"><svg class="icon" width="32px" height="32.00px" viewBox="0 0 1024 1024" version="1.1" xmlns="http://www.w3.org/2000/svg"><path fill="#999999" d="M512 841.159111c-282.737778 0-512-81.92-512-182.897778v182.897778C0 942.08 229.262222 1024 512 1024s512-81.863111 512-182.840889V658.204444c0 101.034667-229.262222 182.897778-512 182.897778z m0-219.420444c-282.737778 0-512-81.92-512-182.897778v182.897778c0 100.977778 229.262222 182.840889 512 182.840889s512-81.92 512-182.840889V438.840889c0 101.034667-229.262222 182.897778-512 182.897778zM512 402.204444c-282.737778 0-512-81.863111-512-182.840888v182.840888c0 101.034667 229.262222 182.897778 512 182.897778s512-81.92 512-182.897778V219.420444c0 100.977778-229.262222 182.840889-512 182.840889zM0 182.840889C0 283.875556 229.262222 365.795556 512 365.795556s512-81.92 512-182.897778S794.737778 0 512 0 0 81.92 0 182.840889z"  /></svg>