<?xml version="1.0" standalone="no"?><!DOCTYPE svg PUBLIC "-//W3C//DTD SVG 1.1//EN" "http://www.w3.org/Graphics/SVG/1.1/DTD/svg11.dtd"><svg class="icon" width="32px" height="32.00px" viewBox="0 0 1024 1024" version="1.1" xmlns="http://www.w3.org/2000/svg"><path fill="#999999" d="M863.085338 0h-43.885693v217.380468l-87.771387-86.942435-87.771387 86.942435V0H160.914244C112.493696 0.146286 73.289143 39.009505 73.142857 86.942435v850.114643c0.146286 47.981691 39.350838 86.796149 87.771387 86.942434h702.171094a87.625101 87.625101 0 0 0 87.771387-86.942434V86.942435A87.625101 87.625101 0 0 0 863.085338 0z m-87.771387 946.71193c0-144.042598-117.90623-260.827304-263.31416-260.827304s-263.31416 116.784706-263.31416 260.876066H160.914244c0-140.434219 83.919198-261.314923 204.799902-316.269564a216.015135 216.015135 0 0 1-58.709305-239.567124A219.379705 219.379705 0 0 1 511.999791 251.172452a219.379705 219.379705 0 0 1 204.99495 139.751552A216.015135 216.015135 0 0 1 658.285436 630.491128c120.880704 54.95464 204.799902 175.884107 204.799902 316.220802h-87.771387zM511.999791 338.114887c-72.703965 0-131.65708 58.367972-131.65708 130.389271 0 72.070061 58.953115 130.438033 131.65708 130.438033s131.65708-58.367972 131.65708-130.438033c-0.097524-71.972537-59.001877-130.291747-131.65708-130.389271z"  /></svg>