<?xml version="1.0" standalone="no"?><!DOCTYPE svg PUBLIC "-//W3C//DTD SVG 1.1//EN" "http://www.w3.org/Graphics/SVG/1.1/DTD/svg11.dtd"><svg class="icon" width="32px" height="32.00px" viewBox="0 0 1024 1024" version="1.1" xmlns="http://www.w3.org/2000/svg"><path fill="#999999" d="M1011.747648 604.363072c29.011093-116.101257-2.901109-191.871405-2.901109-191.871406l-111.038536-5.460911a403.709269 403.709269 0 0 0-42.094528-98.068872l74.916882-85.042321c-61.549025-102.619631-137.660481-133.621681-137.660481-133.621682l-82.482519 74.803113a403.709269 403.709269 0 0 0-99.149677-41.127491L604.284003 12.252352C488.23963-16.758741 412.412597 15.153461 412.412597 15.153461l-5.233374 107.397929a403.709269 403.709269 0 0 0-98.125755 38.510804L231.007939 90.29788s-76.16834 31.00205-137.660481 133.621682c19.511382 22.184953 58.022186 47.726092 60.297566 80.377793 0.568845 8.020714-36.974922 103.24536-38.681457 103.302245L15.131276 412.491666s-31.855318 75.770149-2.844225 191.871406l98.979023 6.257295c9.329057 39.364071 24.346564 76.452763 44.199254 110.469691l-65.189633 71.902003s31.00205 76.16834 133.621682 137.660481l74.291152-65.417171a403.652385 403.652385 0 0 0 109.44577 45.280059l4.835183 98.410179s75.770149 31.912202 191.871405 2.844224l6.484833-102.619631a403.709269 403.709269 0 0 0 110.526576-47.839861l78.785027 69.399085c102.619631-61.549025 133.621681-137.660481 133.621681-137.66048l-71.788234-79.240103c17.691078-31.741549 30.945166-66.213554 39.648494-102.505863l110.185269-6.939908zM511.960465 750.556227a238.516692 238.516692 0 1 1 0-477.033385 238.516692 238.516692 0 0 1 0 477.033385z"  /></svg>