<?xml version="1.0" standalone="no"?><!DOCTYPE svg PUBLIC "-//W3C//DTD SVG 1.1//EN" "http://www.w3.org/Graphics/SVG/1.1/DTD/svg11.dtd"><svg class="icon" width="32px" height="32.00px" viewBox="0 0 1024 1024" version="1.1" xmlns="http://www.w3.org/2000/svg"><path fill="#999999" d="M801.129412 777.035294c-18.070588-36.141176-36.141176-72.282353-66.258824-102.4-30.117647-30.117647-60.235294-54.211765-102.4-66.258823-12.047059-6.023529-24.094118-6.023529-36.141176-12.047059 36.141176-12.047059 72.282353-36.141176 102.4-60.235294 48.188235-48.188235 78.305882-114.447059 78.305882-180.705883s-24.094118-132.517647-78.305882-180.705882c-48.188235-48.188235-114.447059-78.305882-180.705883-78.305882S379.482353 120.470588 331.294118 168.658824c-48.188235 48.188235-78.305882 114.447059-78.305883 180.705882s24.094118 132.517647 78.305883 180.705882c30.117647 30.117647 60.235294 48.188235 102.4 60.235294-18.070588 12.047059-30.117647 12.047059-42.164706 18.070589-36.141176 18.070588-72.282353 36.141176-102.4 66.258823-30.117647 30.117647-54.211765 60.235294-66.258824 102.4-18.070588 36.141176-24.094118 78.305882-24.094117 120.470588 0 18.070588 18.070588 36.141176 36.141176 36.141177s36.141176-18.070588 36.141177-36.141177c0-66.258824 24.094118-126.494118 72.282352-174.682353 48.188235-48.188235 108.423529-72.282353 174.682353-72.282353s126.494118 24.094118 174.682353 72.282353c48.188235 48.188235 72.282353 108.423529 72.282353 174.682353 0 18.070588 18.070588 36.141176 36.141177 36.141177s36.141176-18.070588 36.141176-36.141177c-12.047059-42.164706-18.070588-84.329412-36.141176-120.470588z m-481.882353-427.670588c0-108.423529 84.329412-192.752941 192.752941-192.752941s192.752941 84.329412 192.752941 192.752941S614.4 542.117647 512 542.117647 319.247059 457.788235 319.247059 349.364706z"  /></svg>