<?xml version="1.0" standalone="no"?><!DOCTYPE svg PUBLIC "-//W3C//DTD SVG 1.1//EN" "http://www.w3.org/Graphics/SVG/1.1/DTD/svg11.dtd"><svg class="icon" width="32px" height="32.00px" viewBox="0 0 1024 1024" version="1.1" xmlns="http://www.w3.org/2000/svg"><path fill="#999999" d="M908.627386 436.003637l-139.800081-139.921986-63.244055-63.292816-118.149842-118.271747 84.869913-84.943056a100.693118 100.693118 0 0 1 142.579504 0l178.053714 178.22438a100.936927 100.936927 0 0 1 0 142.701408l-84.309153 85.503817z m-71.557942 71.631085L350.572963 994.570059A100.619975 100.619975 0 0 1 279.015021 1023.997806H50.468463A50.687891 50.687891 0 0 1 0 973.480581v-228.765986c0-26.648324 10.532549-52.175126 29.403366-71.631085l322.827498-322.58369 164.205363-164.351647 320.608836 321.486549zM443.781144 1021.779144l125.902969-126.049254h391.069638A63.244055 63.244055 0 0 1 1023.997806 959.047088a63.244055 63.244055 0 0 1-63.244055 63.292817H443.781144v-0.560761z m201.898234-202.117662l125.92735-126.049254h189.147023A63.244055 63.244055 0 0 1 1023.997806 756.953807a63.244055 63.244055 0 0 1-63.244055 63.292816H645.679378v-0.56076z"  /></svg>