<?xml version="1.0" standalone="no"?><!DOCTYPE svg PUBLIC "-//W3C//DTD SVG 1.1//EN" "http://www.w3.org/Graphics/SVG/1.1/DTD/svg11.dtd"><svg class="icon" width="32px" height="26.36px" viewBox="0 0 1243 1024" version="1.1" xmlns="http://www.w3.org/2000/svg"><path fill="#999999" d="M1242.697387 354.03581a139.02019 139.02019 0 0 0-28.720762-71.801905 136.996571 136.996571 0 0 0-108.812191-53.150476H513.975101c-2.486857 0-4.973714 0.414476-7.484952 0.682666l-144.822858 2.925715-18.602666-75.142096A206.409143 206.409143 0 0 0 142.653196 0H48.079482A48.128 48.128 0 0 0 0.000244 48.274286c0 26.745905 21.479619 48.298667 48.103619 48.298666H142.628815a110.104381 110.104381 0 0 1 107.032381 84.065524l27.550476 112.030476c0 0.146286 0 0.414476 0.146286 0.560762l79.969524 324.266667A193.999238 193.999238 0 0 0 545.889768 765.561905h451.754666c89.404952 0 166.887619-60.952381 188.367238-148.065524l53.369905-216.137143c3.876571-15.60381 4.998095-31.597714 3.31581-47.299048z m-753.371429 465.67619a101.912381 101.912381 0 0 0-101.766095 102.15619A101.912381 101.912381 0 0 0 489.325958 1024a101.912381 101.912381 0 0 0 101.741714-102.15619c-0.121905-56.490667-45.592381-102.15619-101.741714-102.156191z m546.816 0a101.912381 101.912381 0 0 0-101.741714 102.15619A101.912381 101.912381 0 0 0 1036.141958 1024a101.912381 101.912381 0 0 0 101.741714-102.15619 101.912381 101.912381 0 0 0-101.741714-102.156191z"  /></svg>